<svg width="550" height="550" viewBox="0 0 550 550" fill="none" xmlns="http://www.w3.org/2000/svg">
<g clip-path="url(#clip0_1_1497)">
<path d="M397.062 100.073L281.286 98.5015V98.499L281.187 98.5003L281.089 98.499V98.5015L165.312 100.073L70.5834 422.347H281.089H281.286H491.791L397.062 100.073Z" fill="#F5F8FC"/>
</g>
<g clip-path="url(#clip1_1_1497)">
<path d="M219.11 355.35L187.032 420.625C185.037 424.683 186.887 428.898 189.983 432.194C199.691 442.527 214.74 453.445 218.283 454.921C223.241 456.987 224.481 457.813 223.241 460.292C222.002 462.771 222.828 461.945 215.391 461.945C207.954 461.945 188.536 459.466 188.536 459.466C188.536 459.466 163.232 452.029 158.118 446.865C158.118 446.865 152.178 445.006 154.244 436.742C156.31 428.479 163.746 355.763 163.746 355.763L219.11 355.35Z" fill="#FF9996"/>
<path d="M171.39 449.431C171.39 449.431 210.847 455.335 208.368 448.311C208.368 448.311 222.828 455.335 225.307 457.814C228.908 461.414 226.304 463.598 221.212 463.598H149.332L171.39 449.431Z" fill="#F90065"/>
<path d="M116.233 354.11L172.01 355.763L158.788 430.132C158.788 430.132 176.421 453.847 189.617 457.1C190.694 457.366 191.299 458.516 190.863 459.535C190.412 460.59 189.255 461.761 186.47 462.358C181.744 463.371 161.332 459.835 148.736 459.264C145.962 459.138 143.36 457.923 141.459 455.899C139.633 453.954 128.128 448.777 126.149 447.898C122.43 446.245 114.167 445.419 114.58 438.395C114.994 431.371 113.754 432.198 116.646 420.629C117.853 415.803 116.233 354.11 116.233 354.11Z" fill="#FF9996"/>
<path d="M188.867 148.379C188.867 148.379 191.037 139.68 175.315 139.68C161.681 139.68 157.136 150.422 159.705 169.487C161.849 185.401 188.867 148.379 188.867 148.379Z" fill="#FFCC83"/>
<path d="M187.426 144.14C187.426 144.14 190.602 149.596 189.362 156.207C188.123 162.817 198.121 162.923 200.146 169.274C202.17 175.625 199.691 180.996 195.147 183.888C190.602 186.781 167.315 168.148 167.315 168.148L187.426 144.14Z" fill="#FFCC83"/>
<path d="M324.879 267.76L302.981 280.568L270.509 266.314C255.055 257.018 264.971 236.773 280.671 243.797L321.16 259.084C322.533 259.776 325.941 266.649 324.879 267.76Z" fill="#FF9996"/>
<path d="M228.612 252.06L200.518 227.27C176.091 208.942 181.649 174.816 198.865 185.128L246.792 227.27C266.21 244.21 243.073 265.694 228.612 252.06Z" fill="#112E5B"/>
<path d="M307.139 282.26C308.469 280.447 307.994 277.888 306.102 276.672L301.437 273.673C299.574 272.475 297.089 273.067 295.966 274.977L295.863 275.151C294.773 277.003 295.388 279.389 297.237 280.484L302.004 283.309C303.731 284.333 305.952 283.879 307.139 282.26Z" fill="#FF9996"/>
<path d="M303.997 284.08C303.28 284.08 302.553 283.891 301.892 283.499L297.125 280.674C295.176 279.519 294.525 276.991 295.673 275.039L295.776 274.864C296.349 273.889 297.271 273.208 298.372 272.945C299.473 272.684 300.604 272.876 301.557 273.487L306.222 276.486C307.188 277.108 307.836 278.072 308.045 279.202C308.255 280.332 307.996 281.464 307.317 282.391C306.511 283.489 305.268 284.08 303.997 284.08ZM299.337 273.272C299.051 273.272 298.761 273.306 298.475 273.374C297.492 273.609 296.668 274.217 296.156 275.088L296.053 275.263C295.028 277.006 295.609 279.263 297.35 280.295L302.117 283.12C303.754 284.089 305.836 283.664 306.961 282.13C307.568 281.303 307.799 280.292 307.612 279.282C307.424 278.274 306.846 277.412 305.983 276.858L301.318 273.858C300.716 273.472 300.034 273.272 299.337 273.272Z" fill="black"/>
<path d="M314.162 278.955C315.492 277.142 315.018 274.583 313.126 273.367L308.461 270.368C306.598 269.17 304.112 269.762 302.989 271.671L302.887 271.845C301.797 273.698 302.411 276.083 304.261 277.179L309.028 280.004C310.754 281.027 312.976 280.573 314.162 278.955Z" fill="#FF9996"/>
<path d="M311.021 280.774C310.303 280.774 309.577 280.586 308.915 280.194L304.148 277.369C302.199 276.214 301.548 273.686 302.697 271.733L302.799 271.559C303.373 270.584 304.295 269.902 305.396 269.64C306.497 269.378 307.628 269.57 308.58 270.182L313.245 273.181C314.212 273.802 314.86 274.767 315.069 275.897C315.279 277.027 315.02 278.159 314.34 279.086C313.535 280.183 312.292 280.774 311.021 280.774ZM306.361 269.967C306.074 269.967 305.785 270.001 305.498 270.069C304.515 270.303 303.692 270.912 303.179 271.783L303.077 271.957C302.051 273.701 302.633 275.958 304.373 276.989L309.14 279.815C310.777 280.784 312.859 280.359 313.985 278.825C314.591 277.997 314.823 276.986 314.635 275.977C314.448 274.968 313.87 274.107 313.007 273.552L308.342 270.553C307.74 270.166 307.057 269.967 306.361 269.967Z" fill="black"/>
<path d="M319.12 274.823C320.45 273.01 319.976 270.451 318.084 269.235L313.419 266.236C311.556 265.038 309.07 265.631 307.947 267.54L307.845 267.714C306.755 269.566 307.369 271.952 309.219 273.047L313.986 275.873C315.712 276.896 317.934 276.442 319.12 274.823Z" fill="#FF9996"/>
<path d="M315.979 276.643C315.261 276.643 314.535 276.454 313.873 276.062L309.106 273.237C307.157 272.082 306.506 269.555 307.655 267.602L307.757 267.427C308.331 266.452 309.253 265.771 310.354 265.508C311.455 265.248 312.586 265.439 313.538 266.05L318.203 269.049C319.17 269.671 319.818 270.636 320.027 271.765C320.236 272.895 319.978 274.028 319.298 274.954C318.493 276.052 317.25 276.643 315.979 276.643ZM311.319 265.835C311.032 265.835 310.743 265.869 310.456 265.937C309.473 266.172 308.65 266.78 308.137 267.651L308.035 267.826C307.009 269.569 307.591 271.827 309.331 272.858L314.098 275.683C315.735 276.652 317.818 276.227 318.943 274.693C319.549 273.866 319.781 272.855 319.593 271.846C319.406 270.837 318.828 269.975 317.964 269.421L313.3 266.422C312.698 266.035 312.015 265.835 311.319 265.835Z" fill="black"/>
<path d="M324.491 270.279C325.821 268.465 325.347 265.906 323.455 264.69L318.79 261.691C316.927 260.494 314.441 261.086 313.318 262.995L313.216 263.169C312.126 265.022 312.74 267.407 314.59 268.503L319.357 271.328C321.083 272.351 323.305 271.897 324.491 270.279Z" fill="#FF9996"/>
<path d="M321.35 272.098C320.632 272.098 319.906 271.91 319.244 271.518L314.477 268.692C312.528 267.538 311.877 265.01 313.026 263.057L313.128 262.883C313.702 261.908 314.624 261.226 315.725 260.963C316.826 260.702 317.957 260.894 318.909 261.506L323.574 264.505C324.541 265.126 325.189 266.091 325.398 267.221C325.608 268.35 325.349 269.483 324.669 270.409C323.864 271.507 322.621 272.098 321.35 272.098ZM316.69 261.291C316.403 261.291 316.114 261.325 315.827 261.393C314.844 261.627 314.021 262.236 313.509 263.107L313.406 263.281C312.38 265.024 312.962 267.282 314.702 268.313L319.469 271.138C321.106 272.108 323.189 271.683 324.314 270.149C324.92 269.321 325.152 268.31 324.964 267.301C324.777 266.292 324.199 265.431 323.336 264.876L318.671 261.877C318.069 261.49 317.386 261.291 316.69 261.291Z" fill="black"/>
<path d="M280.671 243.797L296.575 242.693C297.783 242.605 298.987 242.913 300.004 243.571L311.079 250.738C311.961 251.308 312.6 252.185 312.868 253.201C313.474 255.497 314.734 259.681 316.202 261.149C318.268 263.215 316.202 267.76 311.245 266.52C306.287 265.281 299.247 257.597 299.247 257.597C299.247 257.597 285.215 266.934 275.713 259.91L280.671 243.797Z" fill="#FF9996"/>
<path d="M312.865 266.953C312.352 266.953 311.794 266.885 311.191 266.734C306.532 265.57 300.212 258.954 299.211 257.882C298.36 258.42 294.193 260.944 289.184 262.124L289.083 261.694C294.599 260.396 299.081 257.443 299.125 257.414L299.282 257.309L299.41 257.448C299.48 257.525 306.462 265.097 311.298 266.307C313.965 266.974 315.662 265.892 316.36 264.659C317.018 263.498 316.892 262.15 316.046 261.306C314.547 259.806 313.278 255.62 312.655 253.257C312.401 252.296 311.799 251.466 310.959 250.923L311.199 250.552C312.131 251.156 312.8 252.077 313.082 253.145C313.693 255.464 314.933 259.568 316.359 260.993C317.346 261.98 317.501 263.541 316.744 264.876C316.127 265.966 314.825 266.953 312.865 266.953Z" fill="black"/>
<path d="M221.542 328.908C221.529 331.354 221.451 333.709 221.331 335.932C221.203 338.456 221.017 340.815 220.811 342.955C220.55 345.682 220.257 348.058 219.984 349.979C219.505 353.367 219.1 355.346 219.1 355.346C200.086 356.577 114.579 355.346 114.579 355.346V280.568L210.812 271.016C210.812 271.016 213.179 274.796 216.067 286.766C216.572 288.852 217.092 291.182 217.617 293.789C218.051 295.938 218.489 298.276 218.922 300.813C219.298 303.003 219.674 305.341 220.046 307.837C220.149 308.514 220.249 309.204 220.348 309.902C220.583 311.563 220.782 313.216 220.939 314.86C221.174 317.236 221.331 319.583 221.426 321.884C221.529 324.289 221.563 326.64 221.542 328.908Z" fill="#F90065"/>
<path d="M217.617 293.789H114.579V286.766H216.067C216.572 288.852 217.092 291.182 217.617 293.789ZM220.046 307.837H114.579V300.813H218.922C219.298 303.003 219.674 305.341 220.046 307.837ZM221.426 321.884H114.579V314.86H220.939C221.174 317.236 221.331 319.583 221.426 321.884ZM221.542 328.908C221.529 331.354 221.451 333.709 221.331 335.932H114.579V328.908H221.542ZM220.811 342.955C220.55 345.682 220.257 348.058 219.984 349.979H114.579V342.955H220.811Z" fill="#F2F2F2"/>
<path d="M212.498 274.371L114.579 280.568L128.23 178.092L157.143 169.688L181.635 174.927L197.88 184.608L198.727 185.112C198.727 185.112 199.12 187.442 199.772 191.367C200.078 193.197 200.442 195.375 200.847 197.825C201.198 199.961 201.586 202.303 201.999 204.803C202.33 206.836 202.681 208.976 203.041 211.194C203.412 213.459 203.792 215.805 204.181 218.202C204.516 220.276 204.858 222.387 205.197 224.523C205.573 226.849 205.945 229.204 206.321 231.559C206.652 233.65 206.982 235.74 207.308 237.818C207.68 240.207 208.048 242.574 208.407 244.892C210.349 257.559 211.965 268.789 212.498 274.371Z" fill="#F90065"/>
<path d="M199.772 191.367C190.563 193.8 181.052 195.011 171.525 195.011C156.585 195.011 141.612 192.028 127.717 186.083L130.481 179.625C151.771 188.735 175.751 190.421 197.88 184.608L198.727 185.112C198.727 185.112 199.12 187.442 199.772 191.367ZM201.999 204.803C192.1 207.641 181.821 209.058 171.525 209.058C156.585 209.058 141.612 206.075 127.717 200.13L130.481 193.672C152.726 203.192 177.908 204.605 200.847 197.825C201.198 199.961 201.586 202.303 201.999 204.803ZM204.181 218.202C193.612 221.474 182.577 223.106 171.525 223.106C156.585 223.106 141.612 220.123 127.717 214.177L130.481 207.72C153.436 217.545 179.523 218.73 203.04 211.194C203.412 213.459 203.792 215.805 204.181 218.202Z" fill="#F2F2F2"/>
<path d="M206.321 231.559C195.104 235.294 183.324 237.153 171.525 237.153C156.585 237.153 141.612 234.17 127.717 228.225L130.481 221.767C154.143 231.894 181.126 232.844 205.197 224.523C205.573 226.849 205.945 229.204 206.321 231.559Z" fill="#F2F2F2"/>
<path d="M208.407 244.892C196.57 249.102 184.06 251.201 171.525 251.201C156.585 251.201 141.612 248.218 127.717 242.272L130.481 235.815C154.837 246.239 182.713 246.941 207.308 237.818C207.68 240.207 208.048 242.574 208.407 244.892Z" fill="#F2F2F2"/>
<path d="M274.228 268.38L259.891 263.798L234.808 255.779C212.085 247.102 228.198 219.007 246.79 227.27L271.319 239.141L285.214 245.863C299.261 251.647 294.303 275.197 274.228 268.38Z" fill="#FF9996"/>
<path d="M271.319 239.141L259.891 263.798L234.808 255.779C212.085 247.102 228.198 219.007 246.79 227.27L271.319 239.141Z" fill="#112E5B"/>
<path d="M175.727 183.062C162.448 180.654 153.829 170.668 153.829 170.668C153.829 170.668 162.505 166.536 169.116 157.033L171.426 159.454L177.792 166.123L180.982 173.427L181.635 174.927C181.635 174.927 189.01 185.471 175.727 183.062Z" fill="#FF9996"/>
<path d="M180.982 173.427C180.581 173.465 180.11 173.436 179.561 173.32C171.211 171.572 167.876 160.339 167.876 160.339L171.426 159.454L177.792 166.123L180.982 173.427Z" fill="black"/>
<path d="M179.561 173.318C179.561 173.318 187.737 187.4 188.949 217.768C190.162 248.135 187.813 287.821 187.813 287.821C187.813 287.821 219.504 288.953 219.1 282.695C218.697 276.436 198.865 185.128 198.865 185.128L187.296 176.865L179.033 169.428L179.561 173.318ZM159.615 165.296C159.615 165.296 169.802 171.323 172.423 197.523C175.043 223.723 170.563 287.385 170.563 287.385C170.563 287.385 109.622 290.484 112.101 280.155C114.58 269.826 128.392 210.493 128.392 210.493L128.229 178.094L153.83 170.667L159.615 165.296Z" fill="#112E5B"/>
<path d="M163.639 149.08C164.881 148.178 166.458 148.026 167.907 148.516C171.156 142.743 176.728 140.748 181.958 143.077C187.62 145.599 190.736 152.231 187.654 159.151C184.571 166.071 181.375 171.37 175.713 168.848C172.542 167.436 169.272 163.871 167.548 159.791C165.709 159.021 163.858 157.604 162.905 156.292C161.151 153.878 161.48 150.649 163.639 149.08Z" fill="#FF9996"/>
<path d="M163.353 153.361L163.065 153.027C164.244 152.011 165.743 151.336 167.286 151.127L167.345 151.564C165.886 151.761 164.468 152.4 163.353 153.361Z" fill="black"/>
<path d="M164.762 152.146L164.743 154.24L164.762 152.146Z" fill="white"/>
<path d="M164.963 154.242L164.522 154.238L164.541 152.144L164.983 152.148L164.963 154.242Z" fill="black"/>
<path d="M178.488 154.435C178.708 153.941 178.599 153.413 178.245 153.255C177.891 153.098 177.426 153.37 177.206 153.864C176.986 154.357 177.095 154.885 177.449 155.043C177.803 155.201 178.268 154.928 178.488 154.435Z" fill="black"/>
<path d="M185.24 157.185C185.459 156.691 185.351 156.163 184.997 156.006C184.643 155.848 184.178 156.121 183.958 156.614C183.738 157.108 183.847 157.636 184.201 157.793C184.555 157.951 185.02 157.679 185.24 157.185Z" fill="black"/>
<path d="M182.382 161.42C181.406 160.448 180.846 159.1 180.845 157.722C180.844 156.344 181.403 154.995 182.377 154.021L182.689 154.333C181.797 155.225 181.286 156.46 181.286 157.722C181.287 158.983 181.8 160.218 182.694 161.108L182.382 161.42ZM178.45 169.707C177.553 169.707 176.604 169.487 175.623 169.05C172.351 167.592 169.123 164.03 167.38 159.959C165.565 159.18 163.704 157.767 162.726 156.422C160.904 153.913 161.255 150.539 163.51 148.902C164.72 148.023 166.277 147.789 167.804 148.251C171.075 142.581 176.649 140.47 182.048 142.876L181.869 143.279C176.642 140.952 171.238 143.049 168.099 148.624L168.01 148.783L167.836 148.725C166.392 148.237 164.909 148.431 163.769 149.259C161.711 150.753 161.404 153.85 163.083 156.163C164.032 157.469 165.861 158.845 167.633 159.588L167.716 159.623L167.751 159.705C169.419 163.651 172.654 167.245 175.802 168.647C176.874 169.124 177.898 169.326 178.845 169.25L178.88 169.69C178.738 169.701 178.595 169.707 178.45 169.707Z" fill="black"/>
<path d="M122.017 183.062L74.9807 239.584C62.9354 258.67 91.0303 288.418 116.339 257.353L153.604 205.856C167.878 187.607 135.238 165.709 122.017 183.062Z" fill="#112E5B"/>
<path d="M136.449 229.674L136.094 229.412L155.512 202.97L155.868 203.231L136.449 229.674Z" fill="black"/>
<path d="M207.53 239.495L198.854 187.85L199.289 187.777L207.965 239.422L207.53 239.495Z" fill="black"/>
<path d="M192.837 241.592L192.395 241.584L193.272 194.693L188.395 187.336L192.194 189.069L188.643 180.62L189.049 180.449L193.038 189.939L189.615 188.377L193.716 194.564L193.715 194.633L192.837 241.592Z" fill="black"/>
<path d="M175.733 282.227L209.764 288.49C212.099 288.92 214.469 287.376 215.058 285.043L228.107 233.379C228.696 231.046 227.281 228.806 224.947 228.377L190.916 222.114C188.582 221.684 186.212 223.227 185.623 225.56L172.574 277.225C171.984 279.558 173.399 281.797 175.733 282.227Z" fill="black"/>
<path d="M177.132 282.484L211.23 288.76C213.546 289.186 215.897 287.655 216.481 285.341L229.306 234.563C229.891 232.249 228.487 230.027 226.172 229.601L192.074 223.325C189.758 222.899 187.407 224.43 186.822 226.744L173.997 277.522C173.413 279.836 174.816 282.058 177.132 282.484Z" fill="#F2F2F2"/>
<path d="M218.83 241.23L221.791 241.775C222.95 241.989 224.128 241.222 224.42 240.063L225.77 234.718C226.063 233.559 225.36 232.447 224.201 232.234L221.239 231.689C220.08 231.475 218.903 232.242 218.61 233.4L217.26 238.746C216.967 239.905 217.67 241.017 218.83 241.23Z" fill="#B8C2D8"/>
<path d="M223.089 235.877C223.851 235.268 224.008 234.196 223.438 233.483C222.868 232.77 221.788 232.685 221.026 233.294C220.264 233.903 220.107 234.975 220.677 235.688C221.247 236.401 222.326 236.485 223.089 235.877Z" fill="black"/>
<path d="M221.71 239.801C222.254 239.366 222.366 238.601 221.959 238.091C221.552 237.582 220.781 237.522 220.236 237.956C219.692 238.391 219.58 239.157 219.987 239.666C220.394 240.176 221.165 240.236 221.71 239.801Z" fill="white"/>
<path d="M221.602 237.155C221.711 237.068 221.734 236.915 221.652 236.813C221.571 236.711 221.417 236.699 221.308 236.786C221.199 236.873 221.177 237.026 221.258 237.128C221.339 237.23 221.493 237.242 221.602 237.155Z" fill="black"/>
<path d="M217.649 284.248L217.246 284.154L222.931 259.879L223.334 259.973L217.649 284.248Z" fill="#21201F"/>
<path d="M181.512 241.318C178.254 240.56 176.521 240.038 172.423 239.665C163.333 238.839 152.178 244.623 152.178 244.623C133.173 250.407 137.717 273.957 148.046 275.61C148.046 275.61 181.925 283.46 187.297 282.634C192.668 281.807 191.015 274.37 191.015 274.37C194.32 271.065 193.081 266.934 193.081 266.934C196.799 265.281 196.386 259.91 196.386 259.91C199.585 254.578 196.058 252.306 195.011 251.775C191.503 252.471 182.442 252.473 179.033 252.473C179.446 249.58 180.86 245.178 181.512 241.318Z" fill="#FF9996"/>
<path d="M161.679 244.623L157.267 277.668L131.014 275.288L84.4181 271.065C65.4128 268.586 64.9996 229.749 93.5077 232.228L139.914 240.665L161.679 244.623Z" fill="#FF9996"/>
<path d="M139.914 240.665L131.014 275.288L84.4181 271.065C65.4128 268.586 64.9996 229.749 93.5077 232.228L139.914 240.665Z" fill="#112E5B"/>
<path d="M154 243.395L105.247 235.131L105.321 234.696L154.074 242.96L154 243.395Z" fill="black"/>
<path d="M139.145 276.036L94.111 272.318L94.1473 271.878L139.182 275.597L139.145 276.036Z" fill="black"/>
<path d="M142.504 201.312C139.636 193.996 135.548 187.296 130.352 181.399L130.683 181.108C135.913 187.043 140.028 193.787 142.915 201.151L142.504 201.312ZM184.581 252.571C181.753 252.571 179.446 252.494 179.232 252.487L179.248 252.046C179.367 252.05 191.234 252.446 194.671 251.435L194.796 251.858C192.814 252.441 188.258 252.571 184.581 252.571Z" fill="black"/>
<path d="M188.882 261.357L188.81 260.921L196.351 259.692L196.422 260.128L188.882 261.357Z" fill="black"/>
<path d="M187.956 268.184L187.876 267.75L193.454 266.717L193.534 267.151L187.956 268.184Z" fill="black"/>
<path d="M185.064 275.621L184.984 275.186L190.561 274.154L190.642 274.588L185.064 275.621Z" fill="black"/>
<path d="M178.267 163.3C176.479 162.427 175.303 160.503 175.34 158.514L175.781 158.522C175.747 160.315 176.849 162.117 178.46 162.904L178.267 163.3Z" fill="black"/>
<path d="M188.867 148.379C188.867 148.379 189.348 152.681 182.538 151.345C175.728 150.009 172.836 149.183 171.183 152.488C169.531 155.794 167.878 157.446 168.704 164.47C168.704 164.47 161.874 158.446 168.704 145.878C175.535 133.309 190.602 143.399 188.867 148.379Z" fill="#FFCC83"/>
<path d="M115.407 426C115.407 426 125.323 427.653 138.13 442.113C143.364 448.022 158.375 456.574 162.507 456.574C162.507 456.574 181.793 456.322 176.967 449.55C176.967 449.55 213.316 465.044 192.043 465.044H142.594C142.594 465.044 136.891 455.748 133.586 454.921L126.899 465.457H119.523L114.452 445.691C114.452 445.691 109.209 435.916 115.407 426Z" fill="#F90065"/>
<path d="M187.09 464.823H155.69V465.264H187.09V464.823Z" fill="black"/>
<path d="M160.865 420.873L160.43 420.798L171.585 355.519L172.02 355.594L160.865 420.873Z" fill="black"/>
<path d="M169.853 322.773L169.467 322.561C174.752 312.946 180.681 303.553 187.089 294.643L187.447 294.9C181.05 303.796 175.13 313.174 169.853 322.773ZM194.156 458.612C188.213 454.537 176.995 449.801 176.882 449.754C174.588 448.711 165.751 438.913 165.376 438.497L165.703 438.201C165.794 438.303 174.854 448.347 177.059 449.349C177.166 449.395 188.425 454.148 194.405 458.248L194.156 458.612Z" fill="black"/>
<path d="M167.096 237.481L162.986 192.228L164.449 187.208H160.089L154.255 173.547L154.66 173.374L160.38 186.766H165.037L163.433 192.271L167.535 237.442L167.096 237.481Z" fill="black"/>
<path d="M179.098 183.636C178.643 183.636 178.142 183.61 177.589 183.552L177.635 183.113C181.967 183.565 182.939 181.959 182.948 181.943L183.334 182.156C183.297 182.224 182.484 183.636 179.098 183.636Z" fill="black"/>
</g>
<g clip-path="url(#clip2_1_1497)">
<path d="M449.884 427.033H426.73V438.197H449.884V427.033Z" fill="#F90065"/>
<path d="M395.719 422.071H372.978V432.821H395.719V422.071Z" fill="#F90065"/>
<path d="M398.615 458.044H328.646C325.934 458.044 323.809 455.692 324.09 452.996C324.301 450.933 324.847 449.175 325.636 447.679C325.711 447.538 325.785 447.397 325.868 447.257C330.85 438.619 344.276 439.049 347.757 437.784C348.605 437.474 349.713 436.792 350.949 435.886C351.078 435.791 351.206 435.696 351.334 435.593C352.384 434.807 353.513 433.873 354.65 432.884C354.762 432.785 354.877 432.686 354.989 432.587C355.923 431.764 356.858 430.912 357.751 430.077C357.859 429.978 357.966 429.874 358.074 429.775C361.447 426.608 364.205 423.73 364.205 423.73L373.806 426.207C376.25 431.309 390.225 434.282 395.307 428.688L396.564 428.113L397.122 436.25L397.151 436.693L398.102 450.585L398.135 451.028L398.615 458.044Z" fill="#F2F2F2"/>
<path d="M398.135 451.028H339.409C331.214 451.028 327.369 449.109 325.636 447.679C325.711 447.538 325.785 447.397 325.868 447.257C327.497 448.625 331.251 450.585 339.409 450.585H398.102L398.135 451.028Z" fill="black"/>
<path d="M397.151 436.693C393.116 436.746 386.211 437.47 381.819 441.344C379.215 443.635 377.825 446.744 377.681 450.585C377.676 450.66 377.672 450.734 377.672 450.813L377.23 450.8C377.23 450.726 377.234 450.656 377.242 450.585C377.387 446.612 378.83 443.391 381.53 441.009C386.012 437.065 393.016 436.312 397.122 436.25L397.151 436.693ZM362.051 434.956L361.679 435.192C360.542 433.364 359.227 431.648 357.751 430.077C357.859 429.978 357.966 429.874 358.074 429.775C359.57 431.371 360.902 433.108 362.051 434.956ZM358.437 435.336L358.16 435.679C357.734 435.336 356.899 434.671 356.06 434.005C355.564 433.608 355.063 433.215 354.65 432.884C354.762 432.785 354.877 432.686 354.989 432.587C355.39 432.909 355.861 433.285 356.337 433.662C357.176 434.327 358.011 434.993 358.437 435.336ZM356.358 438.437L356.143 438.822L350.949 435.886C351.078 435.791 351.206 435.696 351.334 435.593L356.358 438.437Z" fill="black"/>
<path d="M456.088 463.42L380.008 464.247C379.744 459.326 381.146 455.903 383.581 453.36C383.684 453.248 383.792 453.141 383.903 453.037C389.121 447.927 398.64 446.459 406.884 443.159C408.584 442.481 410.023 441.762 411.234 441.03C411.383 440.935 411.528 440.848 411.668 440.757C412.64 440.137 413.455 439.512 414.141 438.888C414.253 438.789 414.364 438.685 414.468 438.586C415.154 437.929 415.696 437.28 416.126 436.655C416.212 436.531 416.291 436.407 416.37 436.287C418.164 433.426 417.635 431.168 417.635 431.168L427.558 429.928C429.369 434.89 448.654 436.957 449.886 431.168H450.713L452.78 441.919C452.801 441.968 452.817 442.022 452.838 442.076C452.892 442.212 452.942 442.349 452.987 442.489C454.612 447.029 455.385 452.558 455.757 456.787C455.766 456.936 455.778 457.085 455.79 457.23C456.088 460.848 456.088 463.42 456.088 463.42Z" fill="#F2F2F2"/>
<path d="M455.79 457.23H396.283C389.494 457.23 385.218 455.927 383.581 453.36C383.684 453.248 383.792 453.141 383.903 453.037C383.916 453.062 383.932 453.091 383.949 453.116C385.016 454.79 388.017 456.787 396.283 456.787H455.757C455.766 456.936 455.778 457.085 455.79 457.23Z" fill="black"/>
<path d="M452.987 442.489C447.103 444.884 438.619 449.552 437.75 456.787C437.738 456.866 437.73 456.949 437.721 457.031L437.283 456.99C437.291 456.92 437.296 456.854 437.308 456.787C438.168 449.312 446.851 444.515 452.838 442.076C452.892 442.212 452.941 442.349 452.987 442.489ZM422.063 440.141L421.815 440.509L416.126 436.655C416.212 436.531 416.291 436.407 416.37 436.287L422.063 440.141ZM418.941 441.973L418.706 442.345C417.097 441.319 415.567 440.157 414.141 438.888C414.253 438.789 414.364 438.685 414.468 438.586C415.869 439.831 417.366 440.968 418.941 441.973ZM415.667 443.668L415.357 443.982C414.149 442.787 412.752 441.786 411.234 441.03C411.383 440.935 411.528 440.848 411.668 440.757C413.136 441.518 414.492 442.502 415.667 443.668Z" fill="black"/>
<path d="M397.788 188.044L382.986 214.904L375.46 228.565C362.229 250.066 341.142 230.219 351.363 215.115L362.031 197.732L363.676 195.053L365.876 191.472L377.114 173.159C387.451 159.515 406.884 171.092 397.788 188.044Z" fill="#7C4B33"/>
<path d="M397.788 188.044L382.985 214.904L362.031 197.732L363.676 195.053L365.876 191.472L377.114 173.159C387.451 159.515 406.884 171.092 397.788 188.044Z" fill="#112E5B"/>
<path d="M379.732 203.868L376.974 206.948L363.676 195.053L365.876 191.472L379.732 203.868Z" fill="#F2F2F2"/>
<path d="M316.952 236.366L351.364 215.117C367.603 206.65 381.247 222.362 367.881 236.366L329.976 254.613C312.197 264.537 302.273 244.69 316.952 236.366Z" fill="#7C4B33"/>
<path d="M320.604 235.029L299.181 242.526C298.236 242.857 297.425 243.486 296.869 244.319L295.658 246.136L285.734 258.334L306.587 271.05L333.245 253.04C343.621 242.209 335.352 229.805 320.604 235.029Z" fill="#7C4B33"/>
<path d="M387.489 152.962C386.329 152.715 385.142 152.415 384.185 151.709C380.535 149.019 383.986 146.533 383.484 145.572C381.325 141.438 383.581 141.355 384.361 141.131C382.631 137.968 381.569 132.525 386.852 129.868C386.713 129.48 387.247 124.681 393.036 124.755C395.538 120.691 399.486 123.085 399.486 123.085C399.486 123.085 404.224 119.893 406.523 124.06C407.382 123.085 410.826 120.958 412.515 124.681C418.437 123.484 418.437 126.676 418.275 128.116C418.861 127.224 424.36 128.671 422.569 133.432C424.504 133.654 425.732 136.22 424.704 137.891C428.308 139.443 425.939 142.635 425.939 142.635C427.518 145.827 425.053 147.11 424.198 147.397C425.939 150.615 422.78 154.206 418.437 153.408C416.068 155.403 414.28 154.155 412.66 154.006C407.739 153.552 402.449 153.935 397.896 155.973C396.362 156.66 395.217 156.736 393.467 156.495C388.431 155.802 388.765 153.234 387.489 152.962Z" fill="black"/>
<path d="M360.987 265.364V351.042V427.033L398.2 429.1L400.145 358.369L410.323 264.31L360.987 265.364Z" fill="#FFCC83"/>
<path d="M385.655 265.364L400.546 354.66L417.633 431.168H452.622L451.125 346.818L455.919 265.364H385.655Z" fill="#FFCC83"/>
<path d="M381.889 168.855C381.889 168.855 398.322 155.647 421.622 163.576C444.923 171.504 447.817 183.909 449.471 199.621C451.125 215.333 455.919 265.363 455.919 265.363H360.987L381.889 168.855Z" fill="#112E5B"/>
<path d="M406.878 269.843L400.686 269.491C400.699 269.256 402.071 245.678 406.075 222.303C408.446 208.462 411.272 197.359 414.472 189.302C418.93 178.081 424.179 172.506 430.519 172.261L430.759 178.458C427.284 178.593 423.547 183.257 420.236 191.592C417.194 199.249 414.487 209.934 412.188 223.35C408.242 246.384 406.891 269.611 406.878 269.843Z" fill="#B8C2D8"/>
<path d="M396.524 171.261L401.447 161.299C401.625 160.939 401.284 160.542 400.901 160.663L394.276 162.755C394.143 162.797 394.036 162.898 393.987 163.029L386.98 181.598C386.792 182.094 387.461 182.456 387.774 182.028L393.626 174.02C393.643 173.997 393.662 173.975 393.683 173.956L396.427 171.392C396.467 171.354 396.5 171.31 396.524 171.261Z" fill="#F2F2F2"/>
<path d="M421.621 163.575C421.621 163.575 417.486 172.551 404.193 174.962C390.904 177.373 397.292 168.065 397.292 168.065L399.669 162.876L401.253 159.419L411.499 151.448L413 150.282C412.665 155.181 421.621 163.575 421.621 163.575Z" fill="#7C4B33"/>
<path d="M411.499 151.448C411.499 151.448 411.433 163.161 403.076 164.906C400.827 165.374 399.872 164.464 399.669 162.876L401.253 159.419L411.499 151.448Z" fill="black"/>
<path d="M417.383 147.874C416.489 146.625 415.04 145.982 413.509 145.99C412.246 139.482 407.586 135.827 401.883 136.387C395.71 136.994 390.657 142.308 391.398 149.853C392.14 157.398 393.502 163.44 399.675 162.833C403.132 162.493 407.363 160.14 410.289 156.811C412.278 156.66 414.484 155.899 415.803 154.954C418.231 153.215 418.939 150.045 417.383 147.874Z" fill="#7C4B33"/>
<path d="M416.303 152.029C415.548 150.764 414.404 149.71 413.08 149.062L413.275 148.665C414.674 149.351 415.884 150.465 416.682 151.803L416.303 152.029Z" fill="black"/>
<path d="M415.349 150.43L414.706 152.425L415.349 150.43Z" fill="white"/>
<path d="M414.916 152.493L414.496 152.358L415.139 150.363L415.559 150.498L414.916 152.493Z" fill="black"/>
<path d="M402.387 149.175C402.772 149.137 403.042 148.67 402.99 148.131C402.937 147.593 402.581 147.188 402.195 147.226C401.809 147.264 401.539 147.731 401.592 148.269C401.645 148.807 402.001 149.212 402.387 149.175Z" fill="black"/>
<path d="M395.106 149.654C395.492 149.616 395.762 149.149 395.709 148.611C395.656 148.072 395.3 147.667 394.915 147.705C394.529 147.743 394.259 148.21 394.312 148.748C394.364 149.286 394.72 149.692 395.106 149.654Z" fill="black"/>
<path d="M395.687 153.673L395.49 153.278C396.62 152.715 397.497 151.704 397.896 150.506C398.296 149.309 398.2 147.974 397.634 146.845L398.029 146.648C398.647 147.881 398.751 149.338 398.315 150.646C397.879 151.954 396.921 153.057 395.687 153.673ZM398.903 156.706L398.844 156.268C400.622 156.03 402.238 154.667 402.772 152.954L403.194 153.085C402.601 154.987 400.876 156.441 398.903 156.706Z" fill="black"/>
<path d="M398.854 163.095C397.948 163.095 397.126 162.94 396.401 162.632L396.574 162.226C397.449 162.598 398.483 162.728 399.654 162.613C403.086 162.276 407.293 159.886 410.123 156.665L410.182 156.598L410.272 156.591C412.19 156.445 414.361 155.715 415.675 154.775C418 153.109 418.686 150.071 417.204 148.002C416.388 146.862 415.051 146.21 413.533 146.21H413.51L413.327 146.211L413.292 146.031C412.073 139.747 407.602 136.051 401.904 136.607L401.862 136.168C407.748 135.586 412.375 139.353 413.69 145.771C415.287 145.815 416.691 146.528 417.563 147.746C419.186 150.012 418.455 153.327 415.931 155.134C414.578 156.103 412.364 156.857 410.395 157.024C407.454 160.339 403.264 162.702 399.696 163.053C399.409 163.081 399.128 163.095 398.854 163.095Z" fill="black"/>
<path d="M398.658 138.505C398.558 139.449 399.292 140.412 400.358 140.734C401.425 141.055 402.725 140.707 403.369 139.927C403.392 142.242 405.735 144.38 408.49 144.6C408.311 146.056 410.56 146.966 412.261 146.624C414.964 146.079 416.663 143.548 416.357 141.237C416.051 138.925 414.103 136.934 411.724 135.73C409.345 134.527 406.568 134.006 403.821 133.646C400.169 133.168 396.717 133.275 394.148 135.753C392.904 136.953 390.42 139.344 391.391 141.104C391.933 140.943 392.227 140.44 392.46 139.983C393.676 140.192 398.476 140.222 398.658 138.505Z" fill="black"/>
<path d="M441.616 207.891L413.186 235.325L410.134 238.269L407.199 241.102L394.48 253.374C375.874 267.018 350.238 239.729 372.979 221.536L387.831 208.805L390.676 206.366L393.86 203.641L419.289 181.842C435.828 170.678 456.502 190.112 441.616 207.891Z" fill="#7C4B33"/>
<path d="M441.616 207.891L413.186 235.325L410.134 238.269L407.199 241.102L387.831 208.805L390.676 206.366L393.86 203.641L419.289 181.842C435.828 170.678 456.502 190.112 441.616 207.891Z" fill="#112E5B"/>
<path d="M413.186 235.325L410.134 238.269L390.676 206.365L393.86 203.641L413.186 235.325Z" fill="#F2F2F2"/>
<path d="M325.842 273.633L387.863 256.68C408.95 245.93 395.571 214.292 372.978 221.535L313.024 246.757C295.841 252.397 306.145 279.192 325.842 273.633Z" fill="#7C4B33"/>
<path d="M329.563 271.979L305.346 283.889C304.598 284.257 303.755 284.382 302.934 284.242C301.053 283.92 297.886 282.867 297.312 279.422C297.312 279.422 291.523 279.422 291.109 274.46C291.109 274.46 283.253 275.7 282.013 269.912C282.013 269.912 273.743 266.604 277.878 261.642C283.756 254.589 317.12 244.904 317.12 244.904C333.698 240.555 344.034 261.642 329.563 271.979Z" fill="#7C4B33"/>
<path d="M311.668 247.541L290.102 250.169C288.275 250.391 286.814 251.792 286.515 253.607L285.734 258.334L311.668 247.541Z" fill="#7C4B33"/>
<path d="M287.677 255.852L287.514 255.442C300.269 250.369 309.877 246.851 316.887 244.686L317.017 245.107C310.018 247.269 300.421 250.783 287.677 255.852Z" fill="black"/>
<path d="M282.303 269.909L282.137 269.5L295.368 264.125L295.535 264.534L282.303 269.909Z" fill="black"/>
<path d="M290.983 274.459L290.823 274.047L300.333 270.326L300.493 270.738L290.983 274.459Z" fill="black"/>
<path d="M297.605 279.831L297.432 279.425L303.22 276.945L303.394 277.35L297.605 279.831Z" fill="black"/>
<path d="M294.646 249.664L294.603 249.225L307.421 247.984L307.463 248.424L294.646 249.664Z" fill="black"/>
<path d="M328.202 240.552L328.03 240.144L373.067 221.138L401.571 196.765L401.858 197.101L373.302 221.518L373.271 221.532L328.202 240.552Z" fill="black"/>
<path d="M395.434 172.624L400.784 186.571C401.127 187.465 402.272 187.719 402.96 187.054L424.893 165.864C425.442 165.333 425.436 164.451 424.879 163.929L419.983 159.339C419.567 158.948 418.949 158.866 418.444 159.132L396.058 170.965C395.46 171.28 395.192 171.993 395.434 172.624Z" fill="#F2F2F2"/>
<path d="M467.734 314.81L408.016 320.678C402.576 321.213 397.732 317.236 397.198 311.796L393.796 277.179C393.261 271.739 397.238 266.896 402.678 266.361L462.396 260.493C467.836 259.958 472.68 263.935 473.214 269.375L476.616 303.992C477.151 309.432 473.174 314.275 467.734 314.81Z" fill="#B8C2D8"/>
<path d="M397.201 311.977L393.765 277L394.204 276.958L397.641 311.934L397.201 311.977Z" fill="black"/>
<path d="M405.484 318.238C401.18 318.019 400.127 311.966 400.084 311.709C400.063 311.455 398.174 288.099 396.889 279.196C396.359 275.527 396.775 272.791 398.127 271.067C399.273 269.606 400.664 269.453 400.722 269.448L400.766 269.887C400.754 269.888 399.491 270.034 398.465 271.351C397.216 272.955 396.822 275.646 397.325 279.133C398.613 288.049 400.503 311.42 400.522 311.655C400.529 311.696 401.558 317.596 405.507 317.797L405.484 318.238Z" fill="black"/>
<path d="M400.52 292.761L400.477 292.322L472.077 285.287L472.12 285.726L400.52 292.761Z" fill="black"/>
<path d="M444.8 292.551L436.054 293.41C434.265 293.586 432.672 292.278 432.496 290.489L432.405 289.562C432.229 287.773 433.537 286.179 435.326 286.004L444.072 285.144C445.861 284.968 447.454 286.276 447.63 288.066L447.721 288.993C447.897 290.782 446.589 292.375 444.8 292.551Z" fill="#F2F2F2"/>
<path d="M455.68 261.229C455.666 261.015 454.192 239.53 450.034 218.459C444.97 192.795 437.956 178.213 430.744 178.459L430.535 172.26C441.694 171.877 450.079 186.618 456.129 217.308C460.359 238.765 461.854 260.597 461.868 260.815L455.68 261.229Z" fill="#B8C2D8"/>
<path d="M412.865 410.83L400.331 354.709C400.237 354.132 391.14 298.168 389.384 289.066C387.657 280.111 379.423 278.208 379.34 278.19L379.434 277.759C379.52 277.777 388.034 279.736 389.817 288.982C391.575 298.091 400.672 354.061 400.764 354.625L413.296 410.734L412.865 410.83Z" fill="black"/>
<path d="M452.572 463.818H385.589V464.259H452.572V463.818Z" fill="black"/>
<path d="M379.387 457.616H342.174V458.057H379.387V457.616Z" fill="black"/>
<path d="M461.648 260.829C461.634 260.612 460.15 238.846 455.913 217.351C453.263 203.91 450.109 193.383 446.539 186.062L446.935 185.868C450.522 193.223 453.688 203.787 456.345 217.265C460.589 238.788 462.074 260.583 462.089 260.8L461.648 260.829Z" fill="black"/>
<path d="M400.681 186.675L395.306 172.617L395.719 172.459L401.094 186.517L400.681 186.675Z" fill="black"/>
<path d="M370.506 222.614L370.074 222.523L379.584 177.454L380.016 177.545L370.506 222.614Z" fill="black"/>
</g>
<g clip-path="url(#clip3_1_1497)">
<path d="M334.688 82.4436H241.227C245.895 108.528 246.255 136.676 243.578 166.28C236.889 165.741 230.042 165.019 223.027 164.099C222.552 179.455 227.471 187.161 237.784 187.219H326.224C331.096 187.219 335.199 183.576 335.785 178.739C340.046 143.572 340.35 111.029 334.688 82.4436Z" fill="#F2F2F2"/>
<path d="M237.782 187.465C233.591 187.441 230.229 186.147 227.79 183.618C224.181 179.875 222.496 173.305 222.781 164.092L222.79 163.82L223.059 163.855C257.777 168.406 289.453 168.406 319.895 163.856L320.164 163.816L320.177 164.088C320.434 169.59 322.197 175.077 325.141 179.538L324.731 179.809C321.787 175.349 320.005 169.881 319.699 164.383C289.373 168.888 257.824 168.888 223.265 164.378C223.025 173.311 224.666 179.669 228.144 183.276C230.488 185.706 233.731 186.95 237.785 186.973L237.782 187.465ZM338.905 137.503L338.414 137.473C339.906 113.14 334.501 83.2785 334.446 82.9797L334.931 82.8913C334.985 83.1906 340.401 113.111 338.905 137.503Z" fill="black"/>
<path d="M264.592 119.828C268.803 119.828 272.217 116.415 272.217 112.204C272.217 107.993 268.803 104.579 264.592 104.579C260.381 104.579 256.968 107.993 256.968 112.204C256.968 116.415 260.381 119.828 264.592 119.828Z" fill="#F90065"/>
<path d="M264.592 116.908C267.19 116.908 269.297 114.802 269.297 112.204C269.297 109.605 267.19 107.499 264.592 107.499C261.994 107.499 259.888 109.605 259.888 112.204C259.888 114.802 261.994 116.908 264.592 116.908Z" fill="#FFCC83"/>
<path d="M325.834 109.99H307.634V111.701H325.834V109.99Z" fill="#B8C2D8"/>
<path d="M325.834 113.07H307.634V114.781H325.834V113.07Z" fill="#B8C2D8"/>
<path d="M325.834 116.15H307.634V117.861H325.834V116.15Z" fill="#B8C2D8"/>
<path d="M325.834 126.223H259.919V128.19H325.834V126.223Z" fill="#B8C2D8"/>
<path d="M325.834 130.65H259.919V132.618H325.834V130.65Z" fill="#B8C2D8"/>
<path d="M325.834 135.077H259.919V137.045H325.834V135.077Z" fill="#B8C2D8"/>
<path d="M325.834 139.504H259.919V141.472H325.834V139.504Z" fill="#B8C2D8"/>
<path d="M325.834 143.931H259.919V145.899H325.834V143.931Z" fill="#B8C2D8"/>
<path d="M268.343 160.87C267.092 160.87 265.9 160.454 264.932 159.674C264.774 159.737 264.613 159.794 264.45 159.847C262.278 160.543 259.98 160.219 258.144 158.955L258.422 158.55C260.132 159.726 262.274 160.028 264.3 159.379C264.373 159.355 264.446 159.33 264.518 159.305C264.37 159.159 264.229 159.004 264.096 158.839C262.636 157.037 262.415 154.62 263.519 152.53C264.275 151.142 265.932 149.974 267.514 150.542C268.236 150.811 268.784 151.343 269.103 152.079C269.532 153.072 269.514 154.368 269.056 155.464C268.421 157.219 267.129 158.632 265.44 159.451C266.667 160.35 268.224 160.623 269.808 160.172C271.258 159.715 272.439 158.479 272.921 157.042C272.701 157.014 272.489 156.948 272.284 156.844C271.87 156.622 271.572 156.201 271.502 155.743C271.442 155.354 271.557 154.99 271.823 154.718C272.18 154.353 272.761 154.281 273.173 154.553C273.589 154.826 273.646 155.26 273.646 155.65C273.646 155.942 273.619 156.231 273.567 156.516C273.755 156.47 273.95 156.393 274.154 156.285C275.042 155.813 276.098 155.81 276.98 156.278C279.859 157.8 283.66 157.239 285.822 154.971L286.178 155.31C283.869 157.733 279.815 158.334 276.75 156.713C276.023 156.328 275.118 156.331 274.385 156.719C274.061 156.891 273.746 156.997 273.443 157.038C272.957 158.699 271.635 160.113 269.95 160.643C269.412 160.796 268.872 160.87 268.343 160.87ZM266.686 150.891C265.601 150.891 264.506 151.747 263.953 152.763C262.943 154.672 263.144 156.883 264.478 158.529C264.647 158.738 264.828 158.93 265.018 159.104C266.694 158.358 267.978 156.999 268.598 155.285C269.004 154.313 269.024 153.135 268.651 152.275C268.383 151.655 267.944 151.227 267.346 151.004C267.129 150.927 266.908 150.891 266.686 150.891ZM272.609 154.879C272.452 154.879 272.292 154.941 272.174 155.062C271.975 155.266 271.963 155.504 271.988 155.669C272.034 155.972 272.24 156.263 272.512 156.409C272.685 156.496 272.865 156.547 273.053 156.562C273.119 156.262 273.154 155.957 273.154 155.65C273.154 155.328 273.112 155.1 272.903 154.964C272.816 154.906 272.713 154.879 272.609 154.879ZM310.631 161.394H310.559C309.803 161.391 309.346 160.848 309.23 160.312C309.093 159.685 309.39 159.083 309.968 158.816C310.994 158.341 312.08 158.014 313.185 157.843C312.646 157.588 312.092 157.285 311.648 156.856C311.121 156.345 310.652 155.488 310.918 154.614C311.123 153.944 311.746 153.389 312.586 153.13C313.306 152.908 314.086 152.915 314.775 152.922L322.525 152.997C323.283 153.004 324.111 153.097 324.498 153.729C324.871 154.336 324.634 155.129 323.831 155.961C323.218 156.596 322.548 157.183 321.831 157.718C322.3 157.648 322.777 157.605 323.259 157.646C324.036 157.713 324.794 158.093 325.235 158.637C325.538 159.01 325.67 159.435 325.617 159.866L325.129 159.806C325.165 159.506 325.072 159.218 324.853 158.947C324.498 158.509 323.856 158.191 323.217 158.135C322.557 158.079 321.908 158.196 321.221 158.322C321.106 158.343 320.99 158.364 320.874 158.384C317.905 160.305 314.282 161.394 310.631 161.394ZM314.988 158.196C313.343 158.196 311.69 158.561 310.174 159.262C309.725 159.47 309.644 159.901 309.71 160.207C309.78 160.526 310.044 160.9 310.561 160.902H310.631C313.82 160.902 316.984 160.051 319.686 158.528C318.829 158.568 317.976 158.465 317.148 158.366C316.627 158.303 316.089 158.238 315.563 158.211C315.371 158.201 315.18 158.196 314.988 158.196ZM314.988 157.704C315.188 157.704 315.389 157.709 315.588 157.72C316.131 157.748 316.678 157.814 317.206 157.878C318.107 157.986 319.04 158.098 319.944 158.017C320.191 157.995 320.443 157.958 320.692 157.916C321.71 157.248 322.648 156.479 323.477 155.619C323.843 155.24 324.409 154.523 324.079 153.986C323.817 153.558 323.144 153.495 322.52 153.489L314.77 153.414C314.085 153.407 313.379 153.4 312.731 153.6C312.057 153.808 311.543 154.251 311.389 154.757C311.222 155.303 311.459 155.988 311.99 156.503C312.506 157.001 313.198 157.314 313.868 157.615L313.8 157.765C314.196 157.724 314.592 157.704 314.988 157.704ZM266.701 98.2705C264.573 98.2705 262.993 96.6283 262.993 94.5524V94.5317C262.993 92.4765 264.542 90.793 266.763 90.793C268.126 90.793 268.942 91.2474 269.613 91.9084L268.601 93.0755C268.044 92.5694 267.476 92.2596 266.753 92.2596C265.534 92.2596 264.656 93.2717 264.656 94.5111V94.5317C264.656 95.7711 265.513 96.8039 266.753 96.8039C267.579 96.8039 268.085 96.4734 268.653 95.957L269.665 96.9795C268.921 97.7747 268.095 98.2705 266.701 98.2705ZM274.242 98.2705C272.011 98.2705 270.41 96.6077 270.41 94.5524V94.5317C270.41 92.4765 272.032 90.793 274.263 90.793C276.493 90.793 278.094 92.4558 278.094 94.5111V94.5317C278.094 96.587 276.473 98.2705 274.242 98.2705ZM276.431 94.5317C276.431 93.2924 275.523 92.2596 274.242 92.2596C272.961 92.2596 272.073 93.2717 272.073 94.5111V94.5317C272.073 95.7711 272.982 96.8039 274.263 96.8039C275.543 96.8039 276.431 95.7917 276.431 94.5524V94.5317ZM284.582 98.1465L281.08 93.5506V98.1465H279.511V90.9169H280.977L284.365 95.3683V90.9169H285.935V98.1465H284.582ZM290.945 92.3835V98.1465H289.355V92.3835H287.155V90.9169H293.145V92.3835H290.945ZM298.754 98.1465L297.205 95.8331H295.955V98.1465H294.365V90.9169H297.67C299.374 90.9169 300.396 91.8155 300.396 93.3027V93.3233C300.396 94.4904 299.766 95.2237 298.847 95.5645L300.613 98.1465L298.754 98.1465ZM298.785 93.3853C298.785 92.7037 298.31 92.3525 297.536 92.3525H295.955V94.4284H297.567C298.341 94.4284 298.785 94.0153 298.785 93.406V93.3853ZM307.214 98.1465L306.553 96.525H303.496L302.835 98.1465H301.214L304.312 90.8653H305.779L308.877 98.1465H307.214ZM305.025 92.776L304.064 95.1204H305.985L305.025 92.776ZM312.917 98.2705C310.789 98.2705 309.209 96.6283 309.209 94.5524V94.5317C309.209 92.4765 310.758 90.793 312.979 90.793C314.342 90.793 315.158 91.2474 315.829 91.9084L314.817 93.0755C314.259 92.5694 313.691 92.2596 312.968 92.2596C311.75 92.2596 310.872 93.2717 310.872 94.5111V94.5317C310.872 95.7711 311.729 96.8039 312.968 96.8039C313.795 96.8039 314.301 96.4734 314.869 95.957L315.881 96.9795C315.137 97.7747 314.311 98.2705 312.917 98.2705ZM320.427 92.3835V98.1465H318.836V92.3835H316.636V90.9169H322.626V92.3835H320.427Z" fill="black"/>
</g>
<defs>
<clipPath id="clip0_1_1497">
<rect width="421.207" height="323.848" fill="white" transform="translate(70.5834 98.499)"/>
</clipPath>
<clipPath id="clip1_1_1497">
<rect width="254.473" height="325.777" fill="white" transform="translate(70.9958 139.68)"/>
</clipPath>
<clipPath id="clip2_1_1497">
<rect width="199.943" height="342.343" fill="white" transform="translate(276.721 121.917)"/>
</clipPath>
<clipPath id="clip3_1_1497">
<rect width="116.416" height="105.021" fill="white" transform="translate(222.75 82.4436)"/>
</clipPath>
</defs>
</svg>
